<?xml version="1.0" encoding="UTF-8"?><svg id="b" xmlns="http://www.w3.org/2000/svg" viewBox="0 0 118.94 93.42"><g id="c"><path d="M38.46.54c-.42-.72-1.45-.72-1.87,0l-15.24,26.4L.31,63.39c-.42.72.1,1.62.93,1.62h29.86c.39,0,.74-.21.93-.54l4.56-7.9c.42-.72,1.45-.72,1.87,0l4.56,7.9c.19.33.55.54.93.54h29.86c.83,0,1.35-.9.93-1.62l-21.04-36.45L38.46.54Z" style="fill:#049899; stroke-width:0px;"/><path d="M97.66,26.94L82.42.54c-.42-.72-1.45-.72-1.87,0l-14.93,25.86c-.19.33-.19.74,0,1.08l15.86,27.48,5.49,9.51c.19.33.55.54.93.54h29.86c.83,0,1.35-.9.93-1.62l-21.04-36.45Z" style="fill:#049899; stroke-width:0px;"/><path d="M9.81,91.19h-5.35c-.15,0-.28.09-.33.24l-.54,1.52c-.05.14-.18.24-.33.24H.35c-.25,0-.43-.26-.32-.49l5.74-13.35c.06-.13.18-.21.32-.21h2.11c.14,0,.27.08.32.21l5.74,13.35c.1.23-.07.49-.32.49h-2.91c-.15,0-.28-.09-.33-.23l-.55-1.52c-.05-.14-.18-.23-.33-.23ZM5.73,88.4h2.83c.24,0,.42-.24.33-.47l-1.41-3.91c-.11-.31-.55-.31-.66,0l-1.42,3.91c-.08.23.09.47.33.47Z" style="fill:#1d1d1b; stroke-width:0px;"/><path d="M21.55,90.53v2.35c0,.17-.11.31-.27.35-.43.11-1.13.2-1.68.2-2.43,0-3.54-1.45-3.54-3.68v-3.98h-1.75v-2.71h1.75v-2.68c0-.2.16-.35.35-.35h2.59c.2,0,.35.16.35.35v2.33c0,.2.16.35.35.35h1.58c.2,0,.35.16.35.35v2c0,.2-.16.35-.35.35h-1.58c-.2,0-.35.16-.35.35v3.42c0,.78.36,1.14,1.14,1.14.4,0,.72-.06,1.04-.16Z" style="fill:#1d1d1b; stroke-width:0px;"/><path d="M29.54,90.53v2.35c0,.17-.11.31-.27.35-.43.11-1.13.2-1.68.2-2.43,0-3.54-1.45-3.54-3.68v-3.98h-1.75v-2.71h1.75v-2.68c0-.2.16-.35.35-.35h2.59c.2,0,.35.16.35.35v2.33c0,.2.16.35.35.35h1.58c.2,0,.35.16.35.35v2c0,.2-.16.35-.35.35h-1.58c-.2,0-.35.16-.35.35v3.42c0,.78.36,1.14,1.14,1.14.4,0,.72-.06,1.04-.16Z" style="fill:#1d1d1b; stroke-width:0px;"/><path d="M39.08,84.56v-1.51h2.88c.2,0,.35.16.35.35v9.42c0,.2-.16.35-.35.35h-2.82v-1.51c-.56.96-1.73,1.75-3.25,1.75-2.93,0-5.06-2.29-5.06-5.3s2.13-5.3,5.06-5.3c1.53,0,2.73.72,3.19,1.75ZM39.02,88.11c0-1.49-1.02-2.57-2.47-2.57s-2.43,1.1-2.43,2.57,1,2.57,2.43,2.57,2.47-1.08,2.47-2.57Z" style="fill:#1d1d1b; stroke-width:0px;"/><path d="M54.67,86.95h-2.52c-.14,0-.25-.08-.31-.2-.34-.66-.99-1.21-2.14-1.21-1.53,0-2.33,1.17-2.33,2.57s.8,2.57,2.33,2.57c1.15,0,1.8-.55,2.14-1.21.06-.12.18-.2.31-.2h2.52c.23,0,.41.22.35.44-.59,2.02-2.54,3.7-5.3,3.7-3.42,0-5.6-2.25-5.6-5.3s2.19-5.3,5.6-5.3c2.75,0,4.7,1.68,5.3,3.7.06.22-.12.44-.35.44Z" style="fill:#1d1d1b; stroke-width:0px;"/><path d="M56.97,92.82v-13.96c0-.2.16-.35.35-.35h2.59c.2,0,.35.16.35.35v7.9c0,.35.46.49.65.19l2.46-3.75c.07-.1.18-.16.3-.16h2.78c.28,0,.45.32.29.55l-2.92,4.29c-.08.12-.08.28,0,.4l3.07,4.32c.17.23,0,.56-.29.56h-2.96c-.12,0-.23-.06-.29-.16l-3.09-4.64v4.45c0,.2-.16.35-.35.35h-2.59c-.2,0-.35-.16-.35-.35Z" style="fill:#1d1d1b; stroke-width:0px;"/><path d="M77.25,87.7l5.16-8.42c.06-.1.18-.17.3-.17h1.74c.2,0,.35.16.35.35v13.35c0,.2-.16.35-.35.35h-2.59c-.2,0-.35-.16-.35-.35v-5.26c0-.35-.46-.49-.65-.19l-3.61,5.56c-.14.21-.45.21-.59,0l-3.61-5.56c-.19-.3-.65-.16-.65.19v5.26c0,.2-.16.35-.35.35h-2.59c-.2,0-.35-.16-.35-.35v-13.35c0-.2.16-.35.35-.35h1.74c.12,0,.24.06.3.17l5.16,8.42c.14.23.46.23.6,0Z" style="fill:#1d1d1b; stroke-width:0px;"/><path d="M95.12,84.56v-1.51h2.88c.2,0,.35.16.35.35v9.42c0,.2-.16.35-.35.35h-2.82v-1.51c-.56.96-1.73,1.75-3.25,1.75-2.93,0-5.06-2.29-5.06-5.3s2.13-5.3,5.06-5.3c1.53,0,2.73.72,3.19,1.75ZM95.06,88.11c0-1.49-1.02-2.57-2.47-2.57s-2.43,1.1-2.43,2.57,1,2.57,2.43,2.57,2.47-1.08,2.47-2.57Z" style="fill:#1d1d1b; stroke-width:0px;"/><path d="M106.93,90.53v2.35c0,.17-.11.31-.27.35-.43.11-1.13.2-1.68.2-2.43,0-3.54-1.45-3.54-3.68v-3.98h-1.75v-2.71h1.75v-2.68c0-.2.16-.35.35-.35h2.59c.2,0,.35.16.35.35v2.33c0,.2.16.35.35.35h1.58c.2,0,.35.16.35.35v2c0,.2-.16.35-.35.35h-1.58c-.2,0-.35.16-.35.35v3.42c0,.78.36,1.14,1.14,1.14.4,0,.72-.06,1.05-.16Z" style="fill:#1d1d1b; stroke-width:0px;"/><path d="M115.73,90.17c.07-.09.16-.14.27-.14h2.86c-.62,1.91-2.63,3.39-5.16,3.39-3.53,0-5.54-2.21-5.54-5.32s2.25-5.28,5.4-5.28,5.38,2.05,5.38,5.32v.98h-7.55c.2,1.1.88,1.91,2.31,1.91.91,0,1.62-.32,2.03-.86ZM111.39,87.09h4.4c-.16-1.21-.94-1.99-2.19-1.99s-2.03.72-2.21,1.99Z" style="fill:#1d1d1b; stroke-width:0px;"/></g></svg>